<?xml version="1.0" standalone="no"?>
<!DOCTYPE svg PUBLIC "-//W3C//DTD SVG 20010904//EN"
 "http://www.w3.org/TR/2001/REC-SVG-20010904/DTD/svg10.dtd">
<svg version="1.0" xmlns="http://www.w3.org/2000/svg"
 width="40" height="40" viewBox="0 0 400.000000 400.000000"
 preserveAspectRatio="xMidYMid meet">

<g transform="translate(0.000000,400.000000) scale(0.100000,-0.100000)"
fill="#105072" stroke="none">
<path d="M1300 2976 c-52 -7 -108 -17 -125 -21 -190 -46 -409 -145 -545 -245
-267 -198 -468 -482 -559 -790 -120 -403 -53 -868 175 -1217 187 -289 458
-500 775 -606 186 -63 249 -72 484 -72 203 1 214 2 336 33 284 73 505 197 704
397 237 236 385 536 426 861 15 122 7 371 -16 479 -84 398 -317 738 -658 959
-152 100 -352 178 -534 211 -122 22 -346 27 -463 11z m-133 -806 c136 -12 180
-28 154 -55 -17 -18 -198 -389 -254 -520 -85 -201 -161 -404 -154 -412 2 -1
28 45 57 103 178 352 385 616 544 694 58 29 78 33 142 33 85 0 106 -11 85 -45
-27 -44 -172 -340 -217 -444 -54 -127 -146 -383 -142 -396 2 -5 16 22 32 59
85 196 215 392 351 529 102 103 197 164 253 164 28 0 62 -26 62 -47 0 -8 -35
-76 -77 -151 -89 -160 -158 -303 -201 -422 -32 -86 -62 -199 -62 -234 0 -16 2
-17 17 -5 47 39 343 404 343 423 0 3 -6 6 -13 6 -7 0 -21 6 -31 13 -27 20 -13
49 46 99 l52 43 120 -3 c67 -2 129 -8 138 -13 23 -12 23 -36 -1 -75 -70 -114
-165 -319 -189 -406 l-10 -37 23 15 c26 17 148 150 239 262 56 67 78 83 90 64
6 -11 -147 -232 -241 -350 -88 -108 -133 -148 -186 -164 -32 -10 -40 -9 -55 5
-15 16 -15 25 2 142 19 136 55 282 86 352 17 39 17 43 2 43 -21 -1 -57 -47
-240 -309 -196 -281 -203 -288 -256 -235 -71 71 -69 280 3 469 16 41 28 75 26
75 -12 0 -251 -403 -318 -535 -46 -93 -80 -104 -114 -37 -29 61 -31 272 -3
414 25 121 71 267 116 363 16 33 30 65 32 70 9 23 -145 -199 -216 -310 -69
-109 -216 -363 -317 -547 -33 -61 -44 -73 -65 -73 -91 0 -101 351 -18 680 48
192 116 372 205 542 24 45 43 85 43 88 0 11 -38 4 -123 -20 -183 -53 -307
-136 -329 -221 l-12 -44 -44 42 c-75 73 -89 124 -53 184 37 61 203 118 386
133 145 12 168 12 292 1z"/>
</g>
</svg>
